<?xml version="1.0" encoding="UTF-8" standalone="no"?>
<!DOCTYPE svg PUBLIC "-//W3C//DTD SVG 1.1//EN" "http://www.w3.org/Graphics/SVG/1.1/DTD/svg11.dtd">
<svg width="100%" height="100%" viewBox="0 0 1821 2255" version="1.1" xmlns="http://www.w3.org/2000/svg" xmlns:xlink="http://www.w3.org/1999/xlink" xml:space="preserve" xmlns:serif="http://www.serif.com/" style="fill-rule:evenodd;clip-rule:evenodd;stroke-linejoin:round;stroke-miterlimit:2;">
    <g transform="matrix(1,0,0,1,-843.892,-113.144)">
        <g id="LesRépublicains15logo.svg" transform="matrix(12.8759,0,0,12.8759,1691.58,1806.9)">
            <clipPath id="_clip1">
                <rect x="-65.835" y="-131.544" width="141.356" height="175.057"/>
            </clipPath>
            <g clip-path="url(#_clip1)">
                <g transform="matrix(1,0,0,1,-187.5,-131.544)">
                    <g id="g10" transform="matrix(0.630047,0,0,-0.630047,-75.7042,395.689)">
                        <g id="g12">
                            <g id="g14">
                                <g id="g20">
                                </g>
                                <g id="g24">
                                </g>
                                <g id="g28">
                                </g>
                                <g id="g32">
                                </g>
                                <g id="g36">
                                </g>
                                <g id="g40">
                                </g>
                                <g id="g44">
                                </g>
                                <g id="g48">
                                </g>
                                <g id="g52">
                                </g>
                                <g id="g56">
                                </g>
                                <g id="g60">
                                </g>
                                <g id="g64">
                                </g>
                                <g id="g68">
                                </g>
                                <g id="g72">
                                </g>
                                <g id="g76">
                                </g>
                                <g id="g80" transform="matrix(1,0,0,1,426.316,495.643)">
                                    <path id="path82" d="M0,0L10.462,0C37.421,0 52.27,14.986 52.27,42.198C52.27,67.453 36.676,79.217 3.199,79.217L0.002,79.217L0.004,100.369L17.271,100.369C33.639,100.369 50.245,95.177 62.832,86.125C73.297,78.593 85.774,64.861 85.774,42.198C85.774,27.639 80.707,-7.291 34.112,-19.208L96.698,-111.717L67.771,-121.689L0.006,-21.807L0,0Z" style="fill:rgb(20,60,119);fill-rule:nonzero;"/>
                                </g>
                                <rect id="path84" x="391.015" y="350.124" width="35.356" height="277.907" style="fill:rgb(238,39,34);fill-rule:nonzero;"/>
                                <rect id="path86" x="327.866" y="379.046" width="35.348" height="217.162" style="fill:rgb(20,60,119);fill-rule:nonzero;"/>
                            </g>
                        </g>
                    </g>
                </g>
            </g>
        </g>
    </g>
</svg>
